HIERARCHY
ROOT Hips
{
	OFFSET 0.000000 0.000000 0.000000
	CHANNELS 6 Xposition Yposition Zposition Zrotation Yrotation Xrotation 
	JOINT LHipJoint
	{
		OFFSET 0.000000 0.000000 0.000000
		CHANNELS 3 Zrotation Yrotation Xrotation
		JOINT LeftUpLeg
		{
			OFFSET 1.363060 -1.794630 0.839290
			CHANNELS 3 Zrotation Yrotation Xrotation
			JOINT LeftLeg
			{
				OFFSET 2.448110 -6.726130 0.000000
				CHANNELS 3 Zrotation Yrotation Xrotation
				JOINT LeftFoot
				{
					OFFSET 2.562200 -7.039590 0.000000
					CHANNELS 3 Zrotation Yrotation Xrotation
					JOINT LeftToeBase
					{
						OFFSET 0.157640 -0.433110 2.322550
						CHANNELS 3 Zrotation Yrotation Xrotation
						End Site
						{
							OFFSET 0.000000 0.000000 0.000000
						}
					}
				}
			}
		}
	}
	JOINT RHipJoint
	{
		OFFSET 0.000000 0.000000 0.000000
		CHANNELS 3 Zrotation Yrotation Xrotation
		JOINT RightUpLeg
		{
			OFFSET -1.305520 -1.794630 0.839290
			CHANNELS 3 Zrotation Yrotation Xrotation
			JOINT RightLeg
			{
				OFFSET -2.542530 -6.985550 0.000000
				CHANNELS 3 Zrotation Yrotation Xrotation
				JOINT RightFoot
				{
					OFFSET -2.568260 -7.056230 0.000000
					CHANNELS 3 Zrotation Yrotation Xrotation
					JOINT RightToeBase
					{
						OFFSET -0.164730 -0.452590 2.363150
						CHANNELS 3 Zrotation Yrotation Xrotation
						End Site
						{
							OFFSET 0.000000 0.000000 0.000000
						}
					}
				}
			}
		}
	}
}
MOTION
Frames: 11
Frame Time: 0.008333
-1.683207 17.881001 0.072363 -169.774647 80.058008 -145.621375 -9.783934 0.995628 4.152578 -14.070722 -8.080044 -32.355387 -1.779472 -0.692319 17.219761 2.426837 11.718018 -8.407041 0.292600 0.000000 -25.393300 9.688132 -3.729999 -0.072039 9.560626 -6.486695 -14.153117 1.026918 -1.717964 23.965484 -0.771768 -3.682213 20.773000 -1.852099 -0.000000 -67.270200
-1.438791 17.885445 0.022488 -168.847668 79.876926 -144.753161 -9.724260 1.022483 4.214446 -14.939196 -7.593782 -32.403771 -2.036668 -0.953424 13.973439 2.173212 10.702545 -7.055338 0.583700 0.000000 -27.295700 9.687413 -3.753063 -0.096610 9.481235 -6.343620 -13.772115 0.861562 -1.771832 25.323329 -1.029875 -5.555540 20.379050 -2.692600 -0.000000 -65.362800
-1.195974 17.876075 -0.029512 -167.719120 79.677476 -143.768770 -9.697656 1.050887 4.212753 -15.870898 -6.879258 -32.455801 -2.294091 -1.180727 11.126051 1.908572 9.680559 -5.682785 0.828100 -0.000000 -28.747400 9.675251 -3.772297 -0.123979 9.429493 -6.168158 -13.356188 0.697897 -1.833305 26.937968 -1.308230 -7.552619 19.553608 -3.537300 0.000001 -63.422301
-0.955210 17.852583 -0.083841 -166.386981 79.458899 -142.671411 -9.701266 1.080044 4.148008 -16.842758 -5.978277 -32.526261 -2.539872 -1.363479 8.781048 1.648830 8.673905 -4.396148 1.005900 -0.000001 -29.521800 9.652627 -3.791221 -0.158657 9.403035 -5.983960 -12.890541 0.540370 -1.903856 28.759440 -1.596902 -9.560373 18.412972 -4.307800 0.000001 -61.541199
-0.716516 17.814785 -0.140029 -164.976078 79.231407 -141.574349 -9.723163 1.109342 4.044628 -17.809971 -5.033626 -32.593455 -2.754776 -1.501295 6.953696 1.423994 7.797244 -3.286615 1.121700 -0.000000 -29.461500 9.627357 -3.808779 -0.210773 9.364653 -5.835994 -12.389834 0.391913 -1.986593 30.761431 -1.880130 -11.446810 17.052132 -4.928900 -0.000000 -59.702000
-0.479875 17.762603 -0.197718 -163.564604 79.002654 -140.538063 -9.753857 1.135101 3.931566 -18.701144 -4.195762 -32.634155 -2.918606 -1.597258 5.638297 1.262306 7.171421 -2.452034 1.191300 0.000000 -28.452600 9.603686 -3.825375 -0.286962 9.288428 -5.750434 -11.869423 0.253766 -2.083174 32.904909 -2.143459 -13.122127 15.577393 -5.364800 0.000001 -57.990100
-0.245215 17.696025 -0.256880 -162.115952 78.768945 -139.510610 -9.791979 1.155189 3.818974 -19.462393 -3.505640 -32.683725 -3.024244 -1.646660 4.912622 1.171355 6.795247 -2.026782 1.212501 0.000000 -26.417901 9.578728 -3.846537 -0.381821 9.183058 -5.722642 -11.341879 0.125645 -2.192460 35.141965 -2.376943 -14.550749 14.097381 -5.623700 -0.000000 -56.554700
-0.012357 17.615569 -0.316779 -160.753372 78.544992 -138.598936 -9.826907 1.164294 3.733797 -20.041816 -3.099984 -32.691566 -3.059698 -1.659208 4.716101 1.171532 6.776822 -2.070163 1.205100 0.000000 -23.442200 9.559317 -3.869050 -0.502411 9.004037 -5.777418 -10.822805 0.005721 -2.314782 37.445646 -2.569156 -15.682934 12.675682 -5.711501 0.000000 -55.426500
0.219489 17.521593 -0.376857 -159.594168 78.341823 -137.876253 -9.846097 1.161658 3.710511 -20.417925 -3.100558 -32.672744 -3.021924 -1.643517 5.016613 1.276999 7.181762 -2.618184 1.173400 -0.000000 -19.705600 9.554409 -3.889656 -0.641214 8.712891 -5.926297 -10.383881 -0.109468 -2.447676 39.819675 -2.712970 -16.494516 11.348129 -5.647000 -0.000001 -54.650400
0.450495 17.414963 -0.437162 -158.602309 78.154269 -137.299875 -9.850051 1.151992 3.731777 -20.634892 -3.405995 -32.715315 -2.930325 -1.587587 5.946653 1.468116 7.844467 -3.746612 1.063800 -0.000001 -15.426100 9.562533 -3.911836 -0.782769 8.318050 -6.153560 -10.041229 -0.222722 -2.585926 42.235950 -2.809593 -17.015050 10.151940 -5.473800 -0.000000 -54.280200
0.680603 17.297218 -0.497407 -157.803865 77.993424 -136.902780 -9.836374 1.137003 3.779792 -20.743623 -3.942763 -32.830479 -2.801704 -1.488147 7.522131 1.730266 8.662582 -5.442341 0.833800 -0.000000 -10.923400 9.587790 -3.933329 -0.921464 7.796965 -6.448672 -9.788472 -0.336710 -2.726479 44.670989 -2.862446 -17.273331 9.095589 -5.224801 0.000000 -54.268501
